{
	"asset":{
		"generator":"Khronos glTF Blender I/O v4.3.47",
		"version":"2.0"
	},
	"extensionsUsed":[
		"KHR_materials_specular",
		"KHR_materials_ior"
	],
	"scene":0,
	"scenes":[
		{
			"name":"Scene",
			"nodes":[
				2
			]
		}
	],
	"nodes":[
		{
			"mesh":0,
			"name":"Object_30.008"
		},
		{
			"children":[
				0
			],
			"name":"Bugatti_Bolide_2024_Modified_CSB.obj.cleaner.materialmerger.gle"
		},
		{
			"children":[
				1
			],
			"name":"Sketchfab_model",
			"rotation":[
				0.0016562283271923661,
				-0.7875746488571167,
				-0.6160224676132202,
				0.015483871102333069
			]
		}
	],
	"materials":[
		{
			"doubleSided":true,
			"extensions":{
				"KHR_materials_specular":{
					"specularColorTexture":{
						"index":0
					}
				},
				"KHR_materials_ior":{
					"ior":1000
				}
			},
			"name":"CSR2_Wheel1A_Tire",
			"normalTexture":{
				"index":1
			},
			"pbrMetallicRoughness":{
				"baseColorTexture":{
					"index":2
				},
				"metallicFactor":0,
				"metallicRoughnessTexture":{
					"index":3
				}
			}
		},
		{
			"doubleSided":true,
			"extensions":{
				"KHR_materials_specular":{
					"specularColorFactor":[
						0.0,
						0.0,
						0.0
					]
				},
				"KHR_materials_ior":{
					"ior":1000
				}
			},
			"name":"wire_177088027.001",
			"pbrMetallicRoughness":{
				"baseColorFactor":[
					0.694100022315979,
					0.3450999855995178,
					0.10589999705553055,
					1
				],
				"metallicFactor":0,
				"roughnessFactor":0.917413592338562
			}
		},
		{
			"alphaMode":"BLEND",
			"doubleSided":true,
			"extensions":{
				"KHR_materials_specular":{
					"specularColorTexture":{
						"index":4
					}
				},
				"KHR_materials_ior":{
					"ior":1000
				}
			},
			"name":"CSR2_CalliperBadge",
			"pbrMetallicRoughness":{
				"baseColorTexture":{
					"index":5
				},
				"metallicFactor":0,
				"metallicRoughnessTexture":{
					"index":6
				}
			}
		},
		{
			"doubleSided":true,
			"extensions":{
				"KHR_materials_specular":{
					"specularColorTexture":{
						"index":7
					}
				},
				"KHR_materials_ior":{
					"ior":1000
				}
			},
			"name":"CSR2_Calliper_Color",
			"normalTexture":{
				"index":8
			},
			"occlusionTexture":{
				"index":9
			},
			"pbrMetallicRoughness":{
				"baseColorTexture":{
					"index":10
				},
				"metallicFactor":0,
				"metallicRoughnessTexture":{
					"index":11
				}
			}
		},
		{
			"doubleSided":true,
			"extensions":{
				"KHR_materials_specular":{
					"specularColorTexture":{
						"index":12
					}
				},
				"KHR_materials_ior":{
					"ior":1000
				}
			},
			"name":"CSR2_Calliper_Textured",
			"normalTexture":{
				"index":13
			},
			"occlusionTexture":{
				"index":14
			},
			"pbrMetallicRoughness":{
				"baseColorTexture":{
					"index":15
				},
				"metallicFactor":0,
				"metallicRoughnessTexture":{
					"index":16
				}
			}
		},
		{
			"doubleSided":true,
			"extensions":{
				"KHR_materials_specular":{
					"specularColorTexture":{
						"index":17
					}
				},
				"KHR_materials_ior":{
					"ior":1000
				}
			},
			"name":"CSR2_Carbon1.001",
			"pbrMetallicRoughness":{
				"baseColorTexture":{
					"index":18
				},
				"metallicFactor":0,
				"metallicRoughnessTexture":{
					"index":19
				}
			}
		},
		{
			"doubleSided":true,
			"extensions":{
				"KHR_materials_specular":{
					"specularColorTexture":{
						"index":20
					}
				},
				"KHR_materials_ior":{
					"ior":1000
				}
			},
			"name":"CSR2_Wheel1A_Rim",
			"normalTexture":{
				"index":21
			},
			"pbrMetallicRoughness":{
				"baseColorTexture":{
					"index":22
				},
				"metallicFactor":0,
				"metallicRoughnessTexture":{
					"index":23
				}
			}
		},
		{
			"doubleSided":true,
			"extensions":{
				"KHR_materials_specular":{
					"specularColorTexture":{
						"index":24
					}
				},
				"KHR_materials_ior":{
					"ior":1000
				}
			},
			"name":"CSR2_Wheel1A_Rotor",
			"normalTexture":{
				"index":25
			},
			"pbrMetallicRoughness":{
				"baseColorTexture":{
					"index":26
				},
				"metallicFactor":0,
				"metallicRoughnessTexture":{
					"index":27
				}
			}
		}
	],
	"meshes":[
		{
			"name":"Object_28.008",
			"primitives":[
				{
					"attributes":{
						"POSITION":0,
						"NORMAL":1,
						"TEXCOORD_0":2
					},
					"indices":3,
					"material":0
				},
				{
					"attributes":{
						"POSITION":4,
						"NORMAL":5,
						"TEXCOORD_0":6
					},
					"indices":7,
					"material":1
				},
				{
					"attributes":{
						"POSITION":8,
						"NORMAL":9,
						"TEXCOORD_0":10
					},
					"indices":11,
					"material":2
				},
				{
					"attributes":{
						"POSITION":12,
						"NORMAL":13,
						"TEXCOORD_0":14
					},
					"indices":15,
					"material":3
				},
				{
					"attributes":{
						"POSITION":16,
						"NORMAL":17,
						"TEXCOORD_0":18
					},
					"indices":19,
					"material":4
				},
				{
					"attributes":{
						"POSITION":20,
						"NORMAL":21,
						"TEXCOORD_0":22
					},
					"indices":23,
					"material":5
				},
				{
					"attributes":{
						"POSITION":24,
						"NORMAL":25,
						"TEXCOORD_0":26
					},
					"indices":27,
					"material":6
				},
				{
					"attributes":{
						"POSITION":28,
						"NORMAL":29,
						"TEXCOORD_0":30
					},
					"indices":31,
					"material":7
				}
			]
		}
	],
	"textures":[
		{
			"sampler":0,
			"source":0
		},
		{
			"sampler":0,
			"source":1
		},
		{
			"sampler":0,
			"source":2
		},
		{
			"sampler":0,
			"source":3
		},
		{
			"sampler":0,
			"source":4
		},
		{
			"sampler":0,
			"source":5
		},
		{
			"sampler":0,
			"source":6
		},
		{
			"sampler":0,
			"source":7
		},
		{
			"sampler":0,
			"source":8
		},
		{
			"sampler":0,
			"source":9
		},
		{
			"sampler":0,
			"source":10
		},
		{
			"sampler":0,
			"source":11
		},
		{
			"sampler":0,
			"source":7
		},
		{
			"sampler":0,
			"source":8
		},
		{
			"sampler":0,
			"source":9
		},
		{
			"sampler":0,
			"source":10
		},
		{
			"sampler":0,
			"source":11
		},
		{
			"sampler":0,
			"source":12
		},
		{
			"sampler":0,
			"source":13
		},
		{
			"sampler":0,
			"source":14
		},
		{
			"sampler":0,
			"source":0
		},
		{
			"sampler":0,
			"source":1
		},
		{
			"sampler":0,
			"source":2
		},
		{
			"sampler":0,
			"source":3
		},
		{
			"sampler":0,
			"source":0
		},
		{
			"sampler":0,
			"source":1
		},
		{
			"sampler":0,
			"source":2
		},
		{
			"sampler":0,
			"source":3
		}
	],
	"images":[
		{
			"mimeType":"image/png",
			"name":"CSR2_Wheel1A_Rim_specularGlossiness",
			"uri":"textures/CSR2_Wheel1A_Rim_specularGlossiness.png"
		},
		{
			"mimeType":"image/png",
			"name":"CSR2_Wheel1A_Rim_normal",
			"uri":"textures/CSR2_Wheel1A_Rim_normal.png"
		},
		{
			"mimeType":"image/png",
			"name":"CSR2_Wheel1A_Rim_diffuse",
			"uri":"textures/CSR2_Wheel1A_Rim_diffuse.png"
		},
		{
			"mimeType":"image/png",
			"name":"CSR2_Wheel1A_Rim_specularGlossiness",
			"uri":"textures/CSR2_Wheel1A_Rim_specularGlossiness-1.png"
		},
		{
			"mimeType":"image/png",
			"name":"CSR2_CalliperBadge_specularGlossiness",
			"uri":"textures/CSR2_CalliperBadge_specularGlossiness.png"
		},
		{
			"mimeType":"image/png",
			"name":"CSR2_CalliperBadge_diffuse",
			"uri":"textures/CSR2_CalliperBadge_diffuse.png"
		},
		{
			"mimeType":"image/png",
			"name":"CSR2_CalliperBadge_specularGlossiness",
			"uri":"textures/CSR2_CalliperBadge_specularGlossiness-1.png"
		},
		{
			"mimeType":"image/png",
			"name":"CSR2_Calliper_Color_specularGlossiness",
			"uri":"textures/CSR2_Calliper_Color_specularGlossiness.png"
		},
		{
			"mimeType":"image/png",
			"name":"CSR2_Calliper_Color_normal",
			"uri":"textures/CSR2_Calliper_Color_normal.png"
		},
		{
			"mimeType":"image/png",
			"name":"CSR2_Calliper_Color_occlusion",
			"uri":"textures/CSR2_Calliper_Color_occlusion.png"
		},
		{
			"mimeType":"image/png",
			"name":"CSR2_Calliper_Color_diffuse",
			"uri":"textures/CSR2_Calliper_Color_diffuse.png"
		},
		{
			"mimeType":"image/png",
			"name":"CSR2_Calliper_Color_specularGlossiness",
			"uri":"textures/CSR2_Calliper_Color_specularGlossiness-1.png"
		},
		{
			"mimeType":"image/png",
			"name":"CSR2_Carbon1_specularGlossiness",
			"uri":"textures/CSR2_Carbon1_specularGlossiness.png"
		},
		{
			"mimeType":"image/png",
			"name":"CSR2_Carbon1_diffuse",
			"uri":"textures/CSR2_Carbon1_diffuse.png"
		},
		{
			"mimeType":"image/png",
			"name":"CSR2_Carbon1_specularGlossiness",
			"uri":"textures/CSR2_Carbon1_specularGlossiness-1.png"
		}
	],
	"accessors":[
		{
			"bufferView":0,
			"componentType":5126,
			"count":734,
			"max":[
				0.43812012672424316,
				3.3522379398345947,
				3.4075264930725098
			],
			"min":[
				-3.0515799522399902,
				-3.434960126876831,
				-3.4050726890563965
			],
			"type":"VEC3"
		},
		{
			"bufferView":1,
			"componentType":5126,
			"count":734,
			"type":"VEC3"
		},
		{
			"bufferView":2,
			"componentType":5126,
			"count":734,
			"type":"VEC2"
		},
		{
			"bufferView":3,
			"componentType":5123,
			"count":3300,
			"type":"SCALAR"
		},
		{
			"bufferView":4,
			"componentType":5126,
			"count":4,
			"max":[
				-9.375179290771484,
				13.52863883972168,
				-3.4138705730438232
			],
			"min":[
				-9.38517951965332,
				13.518638610839844,
				-3.4138705730438232
			],
			"type":"VEC3"
		},
		{
			"bufferView":5,
			"componentType":5126,
			"count":4,
			"type":"VEC3"
		},
		{
			"bufferView":6,
			"componentType":5126,
			"count":4,
			"type":"VEC2"
		},
		{
			"bufferView":7,
			"componentType":5123,
			"count":6,
			"type":"SCALAR"
		},
		{
			"bufferView":8,
			"componentType":5126,
			"count":4,
			"max":[
				-0.4071815013885498,
				1.6373382806777954,
				0.007827043533325195
			],
			"min":[
				-0.4201810359954834,
				1.2799392938613892,
				-0.7407729625701904
			],
			"type":"VEC3"
		},
		{
			"bufferView":9,
			"componentType":5126,
			"count":4,
			"type":"VEC3"
		},
		{
			"bufferView":10,
			"componentType":5126,
			"count":4,
			"type":"VEC2"
		},
		{
			"bufferView":11,
			"componentType":5123,
			"count":6,
			"type":"SCALAR"
		},
		{
			"bufferView":12,
			"componentType":5126,
			"count":154,
			"max":[
				-0.4089810848236084,
				2.03263783454895,
				1.0233263969421387
			],
			"min":[
				-1.7012802362442017,
				0.910739541053772,
				-1.7304729223251343
			],
			"type":"VEC3"
		},
		{
			"bufferView":13,
			"componentType":5126,
			"count":154,
			"type":"VEC3"
		},
		{
			"bufferView":14,
			"componentType":5126,
			"count":154,
			"type":"VEC2"
		},
		{
			"bufferView":15,
			"componentType":5123,
			"count":438,
			"type":"SCALAR"
		},
		{
			"bufferView":16,
			"componentType":5126,
			"count":101,
			"max":[
				-0.431781530380249,
				2.025238275527954,
				0.6832261085510254
			],
			"min":[
				-1.2755810022354126,
				0.8772388696670532,
				-1.733772873878479
			],
			"type":"VEC3"
		},
		{
			"bufferView":17,
			"componentType":5126,
			"count":101,
			"type":"VEC3"
		},
		{
			"bufferView":18,
			"componentType":5126,
			"count":101,
			"type":"VEC2"
		},
		{
			"bufferView":19,
			"componentType":5123,
			"count":294,
			"type":"SCALAR"
		},
		{
			"bufferView":20,
			"componentType":5126,
			"count":363,
			"max":[
				0.7648193836212158,
				2.428138017654419,
				2.5054268836975098
			],
			"min":[
				-0.23388072848320007,
				-2.5108611583709717,
				-2.432772636413574
			],
			"type":"VEC3"
		},
		{
			"bufferView":21,
			"componentType":5126,
			"count":363,
			"type":"VEC3"
		},
		{
			"bufferView":22,
			"componentType":5126,
			"count":363,
			"type":"VEC2"
		},
		{
			"bufferView":23,
			"componentType":5123,
			"count":1206,
			"type":"SCALAR"
		},
		{
			"bufferView":24,
			"componentType":5126,
			"count":8204,
			"max":[
				0.7693188190460205,
				2.5856382846832275,
				2.6588263511657715
			],
			"min":[
				-3.044680595397949,
				-2.668360471725464,
				-2.5942726135253906
			],
			"type":"VEC3"
		},
		{
			"bufferView":25,
			"componentType":5126,
			"count":8204,
			"type":"VEC3"
		},
		{
			"bufferView":26,
			"componentType":5126,
			"count":8204,
			"type":"VEC2"
		},
		{
			"bufferView":27,
			"componentType":5123,
			"count":22404,
			"type":"SCALAR"
		},
		{
			"bufferView":28,
			"componentType":5126,
			"count":184,
			"max":[
				-0.9158809185028076,
				1.9032379388809204,
				1.946826457977295
			],
			"min":[
				-1.2488809823989868,
				-1.9859613180160522,
				-1.9417729377746582
			],
			"type":"VEC3"
		},
		{
			"bufferView":29,
			"componentType":5126,
			"count":184,
			"type":"VEC3"
		},
		{
			"bufferView":30,
			"componentType":5126,
			"count":184,
			"type":"VEC2"
		},
		{
			"bufferView":31,
			"componentType":5123,
			"count":330,
			"type":"SCALAR"
		}
	],
	"bufferViews":[
		{
			"buffer":0,
			"byteLength":8808,
			"byteOffset":0,
			"target":34962
		},
		{
			"buffer":0,
			"byteLength":8808,
			"byteOffset":8808,
			"target":34962
		},
		{
			"buffer":0,
			"byteLength":5872,
			"byteOffset":17616,
			"target":34962
		},
		{
			"buffer":0,
			"byteLength":6600,
			"byteOffset":23488,
			"target":34963
		},
		{
			"buffer":0,
			"byteLength":48,
			"byteOffset":30088,
			"target":34962
		},
		{
			"buffer":0,
			"byteLength":48,
			"byteOffset":30136,
			"target":34962
		},
		{
			"buffer":0,
			"byteLength":32,
			"byteOffset":30184,
			"target":34962
		},
		{
			"buffer":0,
			"byteLength":12,
			"byteOffset":30216,
			"target":34963
		},
		{
			"buffer":0,
			"byteLength":48,
			"byteOffset":30228,
			"target":34962
		},
		{
			"buffer":0,
			"byteLength":48,
			"byteOffset":30276,
			"target":34962
		},
		{
			"buffer":0,
			"byteLength":32,
			"byteOffset":30324,
			"target":34962
		},
		{
			"buffer":0,
			"byteLength":12,
			"byteOffset":30356,
			"target":34963
		},
		{
			"buffer":0,
			"byteLength":1848,
			"byteOffset":30368,
			"target":34962
		},
		{
			"buffer":0,
			"byteLength":1848,
			"byteOffset":32216,
			"target":34962
		},
		{
			"buffer":0,
			"byteLength":1232,
			"byteOffset":34064,
			"target":34962
		},
		{
			"buffer":0,
			"byteLength":876,
			"byteOffset":35296,
			"target":34963
		},
		{
			"buffer":0,
			"byteLength":1212,
			"byteOffset":36172,
			"target":34962
		},
		{
			"buffer":0,
			"byteLength":1212,
			"byteOffset":37384,
			"target":34962
		},
		{
			"buffer":0,
			"byteLength":808,
			"byteOffset":38596,
			"target":34962
		},
		{
			"buffer":0,
			"byteLength":588,
			"byteOffset":39404,
			"target":34963
		},
		{
			"buffer":0,
			"byteLength":4356,
			"byteOffset":39992,
			"target":34962
		},
		{
			"buffer":0,
			"byteLength":4356,
			"byteOffset":44348,
			"target":34962
		},
		{
			"buffer":0,
			"byteLength":2904,
			"byteOffset":48704,
			"target":34962
		},
		{
			"buffer":0,
			"byteLength":2412,
			"byteOffset":51608,
			"target":34963
		},
		{
			"buffer":0,
			"byteLength":98448,
			"byteOffset":54020,
			"target":34962
		},
		{
			"buffer":0,
			"byteLength":98448,
			"byteOffset":152468,
			"target":34962
		},
		{
			"buffer":0,
			"byteLength":65632,
			"byteOffset":250916,
			"target":34962
		},
		{
			"buffer":0,
			"byteLength":44808,
			"byteOffset":316548,
			"target":34963
		},
		{
			"buffer":0,
			"byteLength":2208,
			"byteOffset":361356,
			"target":34962
		},
		{
			"buffer":0,
			"byteLength":2208,
			"byteOffset":363564,
			"target":34962
		},
		{
			"buffer":0,
			"byteLength":1472,
			"byteOffset":365772,
			"target":34962
		},
		{
			"buffer":0,
			"byteLength":660,
			"byteOffset":367244,
			"target":34963
		}
	],
	"samplers":[
		{
			"magFilter":9729,
			"minFilter":9987
		}
	],
	"buffers":[
		{
			"byteLength":367904,
			"uri":"scene.bin"
		}
	]
}
