{
  "accessors": [
    {
      "bufferView": 2,
      "componentType": 5126,
      "count": 7020,
      "max": [
        1.3298380374908447,
        0.6766592860221863,
        0.7233476638793945
      ],
      "min": [
        -1.2956647872924805,
        -0.6214500665664673,
        0.001377976848743856
      ],
      "type": "VEC3"
    },
    {
      "bufferView": 2,
      "byteOffset": 84240,
      "componentType": 5126,
      "count": 7020,
      "max": [
        0.9999117255210876,
        0.9999121427536011,
        0.9999336004257202
      ],
      "min": [
        -0.9999912977218628,
        -0.9998971819877625,
        -0.9995591044425964
      ],
      "type": "VEC3"
    },
    {
      "bufferView": 3,
      "componentType": 5126,
      "count": 7020,
      "max": [
        0.9998939633369446,
        0.9996917247772217,
        0.9999876618385315,
        1.0
      ],
      "min": [
        -0.9999570250511169,
        -0.9997501373291016,
        -0.9998980760574341,
        1.0
      ],
      "type": "VEC4"
    },
    {
      "bufferView": 1,
      "componentType": 5126,
      "count": 7020,
      "max": [
        0.9997790455818176,
        0.9993271827697754
      ],
      "min": [
        0.00045340455835685134,
        0.000778406742028892
      ],
      "type": "VEC2"
    },
    {
      "bufferView": 1,
      "byteOffset": 56160,
      "componentType": 5126,
      "count": 7020,
      "max": [
        0.9986959099769592,
        0.9999818801879883
      ],
      "min": [
        0.0011541711864992976,
        0.0009936690330505371
      ],
      "type": "VEC2"
    },
    {
      "bufferView": 1,
      "byteOffset": 112320,
      "componentType": 5126,
      "count": 7020,
      "max": [
        0.9997790455818176,
        0.9993271827697754
      ],
      "min": [
        0.00045340455835685134,
        0.000778406742028892
      ],
      "type": "VEC2"
    },
    {
      "bufferView": 0,
      "componentType": 5125,
      "count": 11574,
      "type": "SCALAR"
    }
  ],
  "asset": {
    "extras": {
      "author": "Meerschaum Digital (https://sketchfab.com/meerschaumdigital)",
      "license": "CC-BY-4.0 (http://creativecommons.org/licenses/by/4.0/)",
      "source": "https://sketchfab.com/3d-models/log-pile-game-ready-2k-pbr-3f4205a30a7d4adda50c775fb8cce06c",
      "title": "Log Pile (Game Ready / 2K PBR)"
    },
    "generator": "Sketchfab-12.68.0",
    "version": "2.0"
  },
  "bufferViews": [
    {
      "buffer": 0,
      "byteLength": 46296,
      "name": "floatBufferViews",
      "target": 34963
    },
    {
      "buffer": 0,
      "byteLength": 168480,
      "byteOffset": 46296,
      "byteStride": 8,
      "name": "floatBufferViews",
      "target": 34962
    },
    {
      "buffer": 0,
      "byteLength": 168480,
      "byteOffset": 214776,
      "byteStride": 12,
      "name": "floatBufferViews",
      "target": 34962
    },
    {
      "buffer": 0,
      "byteLength": 112320,
      "byteOffset": 383256,
      "byteStride": 16,
      "name": "floatBufferViews",
      "target": 34962
    }
  ],
  "buffers": [
    {
      "byteLength": 495576,
      "uri": "scene.bin"
    }
  ],
  "images": [
    {
      "uri": "textures/Log_Pile_PBR_baseColor.jpeg"
    },
    {
      "uri": "textures/Log_Pile_PBR_metallicRoughness.png"
    },
    {
      "uri": "textures/Log_Pile_PBR_normal.jpeg"
    }
  ],
  "materials": [
    {
      "doubleSided": true,
      "name": "Log_Pile_PBR",
      "normalTexture": {
        "index": 2
      },
      "occlusionTexture": {
        "index": 1
      },
      "pbrMetallicRoughness": {
        "baseColorTexture": {
          "index": 0
        },
        "metallicFactor": 0.0,
        "metallicRoughnessTexture": {
          "index": 1
        },
        "roughnessFactor": 0.9
      }
    }
  ],
  "meshes": [
    {
      "name": "Log Pile_Log Pile PBR_0",
      "primitives": [
        {
          "attributes": {
            "NORMAL": 1,
            "POSITION": 0,
            "TANGENT": 2,
            "TEXCOORD_0": 3,
            "TEXCOORD_1": 4,
            "TEXCOORD_2": 5
          },
          "indices": 6,
          "material": 0,
          "mode": 4
        }
      ]
    }
  ],
  "nodes": [
    {
      "children": [
        1
      ],
      "matrix": [
        1.0,
        0.0,
        0.0,
        0.0,
        0.0,
        2.220446049250313e-16,
        -1.0,
        0.0,
        0.0,
        1.0,
        2.220446049250313e-16,
        0.0,
        0.0,
        0.0,
        0.0,
        1.0
      ],
      "name": "Sketchfab_model"
    },
    {
      "children": [
        2
      ],
      "matrix": [
        0.009999999776482582,
        0.0,
        0.0,
        0.0,
        0.0,
        0.0,
        0.009999999776482582,
        0.0,
        0.0,
        -0.009999999776482582,
        0.0,
        0.0,
        0.0,
        0.0,
        0.0,
        1.0
      ],
      "name": "afd635978c2944328dfc6f88571134db.fbx"
    },
    {
      "children": [
        3
      ],
      "name": "RootNode"
    },
    {
      "children": [
        4
      ],
      "matrix": [
        100.0,
        0.0,
        0.0,
        0.0,
        0.0,
        -1.629206793918314e-05,
        -99.99999999999868,
        0.0,
        0.0,
        99.99999999999868,
        -1.629206793918314e-05,
        0.0,
        0.0,
        0.0,
        0.0,
        1.0
      ],
      "name": "Log Pile"
    },
    {
      "mesh": 0,
      "name": "Log Pile_Log Pile PBR_0"
    }
  ],
  "samplers": [
    {
      "magFilter": 9729,
      "minFilter": 9987,
      "wrapS": 10497,
      "wrapT": 10497
    }
  ],
  "scene": 0,
  "scenes": [
    {
      "name": "Sketchfab_Scene",
      "nodes": [
        0
      ]
    }
  ],
  "textures": [
    {
      "sampler": 0,
      "source": 0
    },
    {
      "sampler": 0,
      "source": 1
    },
    {
      "sampler": 0,
      "source": 2
    }
  ]
}
