{
  "accessors": [
    {
      "bufferView": 2,
      "componentType": 5126,
      "count": 14816,
      "max": [
        7.4613823890686035,
        4.003605842590332,
        0.39891043305397034
      ],
      "min": [
        -7.4613823890686035,
        3.910064697265625e-05,
        -0.40121838450431824
      ],
      "type": "VEC3"
    },
    {
      "bufferView": 2,
      "byteOffset": 177792,
      "componentType": 5126,
      "count": 14816,
      "max": [
        0.997871458530426,
        1.0,
        0.9978591203689575
      ],
      "min": [
        -0.997871458530426,
        -0.7377089858055115,
        -0.9978590607643127
      ],
      "type": "VEC3"
    },
    {
      "bufferView": 1,
      "componentType": 5126,
      "count": 14816,
      "max": [
        1.0,
        1.0
      ],
      "min": [
        0.0,
        0.0
      ],
      "type": "VEC2"
    },
    {
      "bufferView": 0,
      "componentType": 5125,
      "count": 55680,
      "type": "SCALAR"
    },
    {
      "bufferView": 2,
      "byteOffset": 355584,
      "componentType": 5126,
      "count": 21640,
      "max": [
        1.5296558141708374,
        3.8095202445983887,
        0.4649788439273834
      ],
      "min": [
        -1.4318722486495972,
        3.069000244140625,
        0.4454009234905243
      ],
      "type": "VEC3"
    },
    {
      "bufferView": 2,
      "byteOffset": 615264,
      "componentType": 5126,
      "count": 21640,
      "max": [
        1.0,
        1.0,
        1.0
      ],
      "min": [
        -1.0,
        -1.0,
        -1.0
      ],
      "type": "VEC3"
    },
    {
      "bufferView": 1,
      "byteOffset": 118528,
      "componentType": 5126,
      "count": 21640,
      "max": [
        1.0,
        0.0
      ],
      "min": [
        0.0,
        0.0
      ],
      "type": "VEC2"
    },
    {
      "bufferView": 0,
      "byteOffset": 222720,
      "componentType": 5125,
      "count": 27924,
      "type": "SCALAR"
    },
    {
      "bufferView": 2,
      "byteOffset": 874944,
      "componentType": 5126,
      "count": 336,
      "max": [
        7.581972599029541,
        4.14438533782959,
        0.5185878276824951
      ],
      "min": [
        -7.581972599029541,
        4.001303195953369,
        -0.5315163135528564
      ],
      "type": "VEC3"
    },
    {
      "bufferView": 2,
      "byteOffset": 878976,
      "componentType": 5126,
      "count": 336,
      "max": [
        0.9978589415550232,
        1.0,
        0.9978588819503784
      ],
      "min": [
        -0.9978589415550232,
        -0.6926778554916382,
        -0.9978588819503784
      ],
      "type": "VEC3"
    },
    {
      "bufferView": 1,
      "byteOffset": 291648,
      "componentType": 5126,
      "count": 336,
      "max": [
        0.875,
        1.0
      ],
      "min": [
        0.125,
        0.0
      ],
      "type": "VEC2"
    },
    {
      "bufferView": 0,
      "byteOffset": 334416,
      "componentType": 5125,
      "count": 1656,
      "type": "SCALAR"
    },
    {
      "bufferView": 2,
      "byteOffset": 883008,
      "componentType": 5126,
      "count": 336,
      "max": [
        7.581972599029541,
        0.007837295532226563,
        0.5185878276824951
      ],
      "min": [
        -7.581972599029541,
        -0.13524460792541504,
        -0.5315163135528564
      ],
      "type": "VEC3"
    },
    {
      "bufferView": 2,
      "byteOffset": 887040,
      "componentType": 5126,
      "count": 336,
      "max": [
        0.9978591203689575,
        1.0,
        0.9978589415550232
      ],
      "min": [
        -0.9978591203689575,
        -0.6926778554916382,
        -0.9978588819503784
      ],
      "type": "VEC3"
    },
    {
      "bufferView": 1,
      "byteOffset": 294336,
      "componentType": 5126,
      "count": 336,
      "max": [
        0.875,
        1.0
      ],
      "min": [
        0.125,
        0.0
      ],
      "type": "VEC2"
    },
    {
      "bufferView": 0,
      "byteOffset": 341040,
      "componentType": 5125,
      "count": 1656,
      "type": "SCALAR"
    },
    {
      "bufferView": 2,
      "byteOffset": 891072,
      "componentType": 5126,
      "count": 882,
      "max": [
        7.546261310577393,
        3.9334425926208496,
        0.4498654901981354
      ],
      "min": [
        -7.541195392608643,
        2.937832832336426,
        0.4015909731388092
      ],
      "type": "VEC3"
    },
    {
      "bufferView": 2,
      "byteOffset": 901656,
      "componentType": 5126,
      "count": 882,
      "max": [
        1.0,
        1.0,
        1.0
      ],
      "min": [
        -1.0,
        -1.0,
        -1.0
      ],
      "type": "VEC3"
    },
    {
      "bufferView": 1,
      "byteOffset": 297024,
      "componentType": 5126,
      "count": 882,
      "max": [
        0.938957691192627,
        0.9409880042076111
      ],
      "min": [
        0.061546653509140015,
        0.69140625
      ],
      "type": "VEC2"
    },
    {
      "bufferView": 0,
      "byteOffset": 347664,
      "componentType": 5125,
      "count": 2058,
      "type": "SCALAR"
    }
  ],
  "asset": {
    "extras": {
      "author": "Kemal Çolak (https://sketchfab.com/kemalcolak)",
      "license": "CC-BY-4.0 (http://creativecommons.org/licenses/by/4.0/)",
      "source": "https://sketchfab.com/3d-models/finish-line-70aecb6bac234266bdebd22322396caa",
      "title": "Finish Line"
    },
    "generator": "Sketchfab-14.87.0",
    "version": "2.0"
  },
  "bufferViews": [
    {
      "buffer": 0,
      "byteLength": 355896,
      "name": "floatBufferViews",
      "target": 34963
    },
    {
      "buffer": 0,
      "byteLength": 304080,
      "byteOffset": 355896,
      "byteStride": 8,
      "name": "floatBufferViews",
      "target": 34962
    },
    {
      "buffer": 0,
      "byteLength": 912240,
      "byteOffset": 659976,
      "byteStride": 12,
      "name": "floatBufferViews",
      "target": 34962
    }
  ],
  "buffers": [
    {
      "byteLength": 1572216,
      "uri": "scene.bin"
    }
  ],
  "images": [
    {
      "uri": "textures/CP_Black_baseColor.png"
    }
  ],
  "materials": [
    {
      "doubleSided": true,
      "name": "Finish__0",
      "pbrMetallicRoughness": {
        "metallicFactor": 0.0,
        "roughnessFactor": 0.6
      }
    },
    {
      "doubleSided": true,
      "name": "Metal",
      "pbrMetallicRoughness": {
        "baseColorFactor": [
          0.295693,
          0.295693,
          0.295693,
          1.0
        ],
        "metallicFactor": 0.7055259596981628,
        "roughnessFactor": 0.1
      }
    },
    {
      "doubleSided": true,
      "name": "CP_Black",
      "pbrMetallicRoughness": {
        "baseColorTexture": {
          "index": 0
        },
        "metallicFactor": 0.0,
        "roughnessFactor": 0.8823395956157506
      }
    }
  ],
  "meshes": [
    {
      "name": "pole.001_Metal_0",
      "primitives": [
        {
          "attributes": {
            "NORMAL": 1,
            "POSITION": 0,
            "TEXCOORD_0": 2
          },
          "indices": 3,
          "material": 1,
          "mode": 4
        }
      ]
    },
    {
      "name": "Finish__0",
      "primitives": [
        {
          "attributes": {
            "NORMAL": 5,
            "POSITION": 4,
            "TEXCOORD_0": 6
          },
          "indices": 7,
          "material": 0,
          "mode": 4
        }
      ]
    },
    {
      "name": "matel tab_Metal_0",
      "primitives": [
        {
          "attributes": {
            "NORMAL": 9,
            "POSITION": 8,
            "TEXCOORD_0": 10
          },
          "indices": 11,
          "material": 1,
          "mode": 4
        }
      ]
    },
    {
      "name": "matel tab bottom_Metal_0",
      "primitives": [
        {
          "attributes": {
            "NORMAL": 13,
            "POSITION": 12,
            "TEXCOORD_0": 14
          },
          "indices": 15,
          "material": 1,
          "mode": 4
        }
      ]
    },
    {
      "name": "Board.001_CP Black_0",
      "primitives": [
        {
          "attributes": {
            "NORMAL": 17,
            "POSITION": 16,
            "TEXCOORD_0": 18
          },
          "indices": 19,
          "material": 2,
          "mode": 4
        }
      ]
    }
  ],
  "nodes": [
    {
      "children": [
        1
      ],
      "matrix": [
        1.0,
        0.0,
        0.0,
        0.0,
        0.0,
        2.220446049250313e-16,
        -1.0,
        0.0,
        0.0,
        1.0,
        2.220446049250313e-16,
        0.0,
        0.0,
        0.0,
        0.0,
        1.0
      ],
      "name": "Sketchfab_model"
    },
    {
      "children": [
        2
      ],
      "matrix": [
        1.0,
        0.0,
        0.0,
        0.0,
        0.0,
        0.0,
        1.0,
        0.0,
        0.0,
        -1.0,
        0.0,
        0.0,
        0.0,
        0.0,
        0.0,
        1.0
      ],
      "name": "bf0bdf6dbd1e48fb8e27044e64b28c64.fbx"
    },
    {
      "children": [
        3,
        5,
        7,
        9,
        11
      ],
      "name": "RootNode"
    },
    {
      "children": [
        4
      ],
      "name": "pole.001"
    },
    {
      "mesh": 0,
      "name": "pole.001_Metal_0"
    },
    {
      "children": [
        6
      ],
      "matrix": [
        1.0,
        0.0,
        0.0,
        0.0,
        0.0,
        1.0,
        0.0,
        0.0,
        0.0,
        0.0,
        1.0,
        0.0,
        0.0,
        0.0,
        -0.035040222108364105,
        1.0
      ],
      "name": "Finish"
    },
    {
      "mesh": 1,
      "name": "Finish__0"
    },
    {
      "children": [
        8
      ],
      "name": "matel tab"
    },
    {
      "mesh": 2,
      "name": "matel tab_Metal_0"
    },
    {
      "children": [
        10
      ],
      "name": "matel tab bottom"
    },
    {
      "mesh": 3,
      "name": "matel tab bottom_Metal_0"
    },
    {
      "children": [
        12
      ],
      "name": "Board.001"
    },
    {
      "mesh": 4,
      "name": "Board.001_CP Black_0"
    }
  ],
  "samplers": [
    {
      "magFilter": 9729,
      "minFilter": 9987,
      "wrapS": 10497,
      "wrapT": 10497
    }
  ],
  "scene": 0,
  "scenes": [
    {
      "name": "Sketchfab_Scene",
      "nodes": [
        0
      ]
    }
  ],
  "textures": [
    {
      "sampler": 0,
      "source": 0
    }
  ]
}
