{
  "accessors": [
    {
      "bufferView": 2,
      "componentType": 5126,
      "count": 10332,
      "max": [
        0.2040960043668747,
        0.18665499985218048,
        2.450593948364258
      ],
      "min": [
        -0.5017349720001221,
        -0.2373729944229126,
        1.6544129848480225
      ],
      "type": "VEC3"
    },
    {
      "bufferView": 2,
      "byteOffset": 123984,
      "componentType": 5126,
      "count": 10332,
      "max": [
        1.0,
        1.0,
        1.0
      ],
      "min": [
        -1.0,
        -1.0,
        -0.9999885559082031
      ],
      "type": "VEC3"
    },
    {
      "bufferView": 3,
      "componentType": 5126,
      "count": 10332,
      "max": [
        1.0,
        1.0,
        0.9999996423721313,
        1.0
      ],
      "min": [
        -1.0,
        -1.0,
        -0.9999945163726807,
        1.0
      ],
      "type": "VEC4"
    },
    {
      "bufferView": 1,
      "componentType": 5126,
      "count": 10332,
      "max": [
        0.777122974395752,
        0.9757750034332275
      ],
      "min": [
        0.5698500275611877,
        0.03930399939417839
      ],
      "type": "VEC2"
    },
    {
      "bufferView": 0,
      "componentType": 5125,
      "count": 56313,
      "type": "SCALAR"
    },
    {
      "bufferView": 2,
      "byteOffset": 247968,
      "componentType": 5126,
      "count": 10181,
      "max": [
        0.8123270273208618,
        0.7798889875411987,
        1.6544129848480225
      ],
      "min": [
        -0.7977240085601807,
        -0.830473005771637,
        -1.9224909543991089
      ],
      "type": "VEC3"
    },
    {
      "bufferView": 2,
      "byteOffset": 370140,
      "componentType": 5126,
      "count": 10181,
      "max": [
        0.9997408986091614,
        0.9999958276748657,
        0.9926080703735352
      ],
      "min": [
        -0.9998169541358948,
        -0.9999979734420776,
        -1.0
      ],
      "type": "VEC3"
    },
    {
      "bufferView": 3,
      "byteOffset": 165312,
      "componentType": 5126,
      "count": 10181,
      "max": [
        0.9920816421508789,
        0.9911781549453735,
        1.0,
        1.0
      ],
      "min": [
        -0.9911970496177673,
        -0.9911739826202393,
        -0.5682157278060913,
        1.0
      ],
      "type": "VEC4"
    },
    {
      "bufferView": 1,
      "byteOffset": 82656,
      "componentType": 5126,
      "count": 10181,
      "max": [
        0.47222599387168884,
        0.962677001953125
      ],
      "min": [
        0.04426499828696251,
        0.013786000199615955
      ],
      "type": "VEC2"
    },
    {
      "bufferView": 0,
      "byteOffset": 225252,
      "componentType": 5125,
      "count": 59724,
      "type": "SCALAR"
    }
  ],
  "asset": {
    "extras": {
      "author": "ion.fbx (https://sketchfab.com/ionfbx)",
      "license": "CC-BY-4.0 (http://creativecommons.org/licenses/by/4.0/)",
      "source": "https://sketchfab.com/3d-models/car-nitro-bottle-653db48eeaf543f3abec580e5f59fdbc",
      "title": "Car Nitro Bottle"
    },
    "generator": "Sketchfab-16.0.0",
    "version": "2.0"
  },
  "bufferViews": [
    {
      "buffer": 0,
      "byteLength": 464148,
      "name": "floatBufferViews",
      "target": 34963
    },
    {
      "buffer": 0,
      "byteLength": 164104,
      "byteOffset": 464148,
      "byteStride": 8,
      "name": "floatBufferViews",
      "target": 34962
    },
    {
      "buffer": 0,
      "byteLength": 492312,
      "byteOffset": 628252,
      "byteStride": 12,
      "name": "floatBufferViews",
      "target": 34962
    },
    {
      "buffer": 0,
      "byteLength": 328208,
      "byteOffset": 1120564,
      "byteStride": 16,
      "name": "floatBufferViews",
      "target": 34962
    }
  ],
  "buffers": [
    {
      "byteLength": 1448772,
      "uri": "scene.bin"
    }
  ],
  "images": [
    {
      "uri": "textures/NITRO_BOTTLE_baseColor.png"
    },
    {
      "uri": "textures/NITRO_BOTTLE_metallicRoughness.png"
    },
    {
      "uri": "textures/NITRO_BOTTLE_normal.png"
    }
  ],
  "materials": [
    {
      "doubleSided": true,
      "name": "NITRO_BOTTLE",
      "normalTexture": {
        "index": 2
      },
      "pbrMetallicRoughness": {
        "baseColorTexture": {
          "index": 0
        },
        "metallicRoughnessTexture": {
          "index": 1
        }
      }
    }
  ],
  "meshes": [
    {
      "name": "Object_0",
      "primitives": [
        {
          "attributes": {
            "NORMAL": 1,
            "POSITION": 0,
            "TANGENT": 2,
            "TEXCOORD_0": 3
          },
          "indices": 4,
          "material": 0,
          "mode": 4
        }
      ]
    },
    {
      "name": "Object_1",
      "primitives": [
        {
          "attributes": {
            "NORMAL": 6,
            "POSITION": 5,
            "TANGENT": 7,
            "TEXCOORD_0": 8
          },
          "indices": 9,
          "material": 0,
          "mode": 4
        }
      ]
    }
  ],
  "nodes": [
    {
      "children": [
        1
      ],
      "matrix": [
        1.0,
        0.0,
        0.0,
        0.0,
        0.0,
        2.220446049250313e-16,
        -1.0,
        0.0,
        0.0,
        1.0,
        2.220446049250313e-16,
        0.0,
        0.0,
        0.0,
        0.0,
        1.0
      ],
      "name": "Sketchfab_model"
    },
    {
      "children": [
        2,
        3
      ],
      "name": "TO SKETCHFAB.obj.cleaner.materialmerger.gles"
    },
    {
      "mesh": 0,
      "name": "Object_2"
    },
    {
      "mesh": 1,
      "name": "Object_3"
    }
  ],
  "samplers": [
    {
      "magFilter": 9729,
      "minFilter": 9987,
      "wrapS": 10497,
      "wrapT": 10497
    }
  ],
  "scene": 0,
  "scenes": [
    {
      "name": "Sketchfab_Scene",
      "nodes": [
        0
      ]
    }
  ],
  "textures": [
    {
      "sampler": 0,
      "source": 0
    },
    {
      "sampler": 0,
      "source": 1
    },
    {
      "sampler": 0,
      "source": 2
    }
  ]
}
