{
	"asset":{
		"generator":"Khronos glTF Blender I/O v4.3.47",
		"version":"2.0"
	},
	"extensionsUsed":[
		"KHR_materials_specular",
		"KHR_materials_ior"
	],
	"scene":0,
	"scenes":[
		{
			"name":"Scene",
			"nodes":[
				9
			]
		}
	],
	"nodes":[
		{
			"mesh":0,
			"name":"Rock_Low_Poly_0",
			"scale":[
				1.7051149606704712,
				1.7051148414611816,
				1.7051148414611816
			],
			"translation":[
				0.4972522556781769,
				-0.01208588294684887,
				-1.6307908296585083
			]
		},
		{
			"children":[
				0
			],
			"name":"Rock_Low_Poly",
			"rotation":[
				0,
				-0.6005037426948547,
				0,
				0.7996219992637634
			],
			"scale":[
				0.9999979138374329,
				1,
				0.9999979138374329
			],
			"translation":[
				-1.7392699718475342,
				0,
				0.37703999876976013
			]
		},
		{
			"name":"Sun.001"
		},
		{
			"children":[
				2
			],
			"name":"Sun",
			"rotation":[
				0.30411404371261597,
				-0.19512376189231873,
				-0.31016385555267334,
				0.8793405294418335
			],
			"scale":[
				1,
				1.000002384185791,
				1
			],
			"translation":[
				-1.168370008468628,
				-2.5903799533843994,
				1.363420009613037
			]
		},
		{
			"name":"Sun.003"
		},
		{
			"children":[
				4
			],
			"name":"Sun.002",
			"rotation":[
				-0.0708259642124176,
				-0.35432004928588867,
				-0.9318972229957581,
				0.03175776079297066
			],
			"translation":[
				0.8651700019836426,
				3.48294997215271,
				1.363420009613037
			]
		},
		{
			"name":"Sun.005"
		},
		{
			"children":[
				6
			],
			"name":"Sun.004",
			"rotation":[
				-0.831180989742279,
				-0.514759361743927,
				0.053077712655067444,
				0.2033311128616333
			],
			"scale":[
				1,
				0.9999972581863403,
				1.0000032186508179
			],
			"translation":[
				-2.182889938354492,
				1.9197399616241455,
				-6.735199928283691
			]
		},
		{
			"children":[
				1,
				3,
				5,
				7
			],
			"name":"Root"
		},
		{
			"children":[
				8
			],
			"name":"Sketchfab_model",
			"rotation":[
				-0.70710688829422,
				0,
				0,
				0.7071066498756409
			]
		}
	],
	"materials":[
		{
			"doubleSided":true,
			"extensions":{
				"KHR_materials_specular":{
					"specularColorFactor":[
						0.6700000166893005,
						0.6700000166893005,
						0.6700000166893005
					],
					"specularColorTexture":{
						"index":0
					}
				},
				"KHR_materials_ior":{
					"ior":1000
				}
			},
			"name":"Material.001",
			"normalTexture":{
				"index":1
			},
			"pbrMetallicRoughness":{
				"baseColorTexture":{
					"index":2
				},
				"metallicFactor":0,
				"metallicRoughnessTexture":{
					"index":3
				}
			}
		}
	],
	"meshes":[
		{
			"name":"Rock_Low_Poly_0",
			"primitives":[
				{
					"attributes":{
						"POSITION":0,
						"NORMAL":1,
						"TEXCOORD_0":2,
						"TEXCOORD_1":3,
						"TEXCOORD_2":4
					},
					"indices":5,
					"material":0
				}
			]
		}
	],
	"textures":[
		{
			"sampler":0,
			"source":0
		},
		{
			"sampler":0,
			"source":1
		},
		{
			"sampler":0,
			"source":2
		},
		{
			"sampler":0,
			"source":3
		}
	],
	"images":[
		{
			"mimeType":"image/png",
			"name":"Material_specularGlossiness",
			"uri":"textures/Material_specularGlossiness.png"
		},
		{
			"mimeType":"image/png",
			"name":"Material_normal",
			"uri":"textures/Material_normal.png"
		},
		{
			"mimeType":"image/png",
			"name":"Material_diffuse",
			"uri":"textures/Material_diffuse.png"
		},
		{
			"mimeType":"image/png",
			"name":"Material_specularGlossiness",
			"uri":"textures/Material_specularGlossiness-1.png"
		}
	],
	"accessors":[
		{
			"bufferView":0,
			"componentType":5126,
			"count":306,
			"max":[
				0.43479999899864197,
				0.4620758295059204,
				0.8037372827529907
			],
			"min":[
				-0.47560998797416687,
				-0.5079442262649536,
				-1.0495727062225342
			],
			"type":"VEC3"
		},
		{
			"bufferView":1,
			"componentType":5126,
			"count":306,
			"type":"VEC3"
		},
		{
			"bufferView":2,
			"componentType":5126,
			"count":306,
			"type":"VEC2"
		},
		{
			"bufferView":3,
			"componentType":5126,
			"count":306,
			"type":"VEC2"
		},
		{
			"bufferView":4,
			"componentType":5126,
			"count":306,
			"type":"VEC2"
		},
		{
			"bufferView":5,
			"componentType":5123,
			"count":1521,
			"type":"SCALAR"
		}
	],
	"bufferViews":[
		{
			"buffer":0,
			"byteLength":3672,
			"byteOffset":0,
			"target":34962
		},
		{
			"buffer":0,
			"byteLength":3672,
			"byteOffset":3672,
			"target":34962
		},
		{
			"buffer":0,
			"byteLength":2448,
			"byteOffset":7344,
			"target":34962
		},
		{
			"buffer":0,
			"byteLength":2448,
			"byteOffset":9792,
			"target":34962
		},
		{
			"buffer":0,
			"byteLength":2448,
			"byteOffset":12240,
			"target":34962
		},
		{
			"buffer":0,
			"byteLength":3042,
			"byteOffset":14688,
			"target":34963
		}
	],
	"samplers":[
		{
			"magFilter":9729,
			"minFilter":9987
		}
	],
	"buffers":[
		{
			"byteLength":17732,
			"uri":"scene.bin"
		}
	]
}
