{
	"asset":{
		"generator":"Khronos glTF Blender I/O v4.3.47",
		"version":"2.0"
	},
	"scene":0,
	"scenes":[
		{
			"name":"Scene",
			"nodes":[
				0
			]
		}
	],
	"nodes":[
		{
			"mesh":0,
			"name":"jersey_shape1_JerseyBarrier_0",
			"rotation":[
				0,
				0.7051932215690613,
				0,
				0.7090151906013489
			],
			"scale":[
				4.4163425627630204e-05,
				4.4163425627630204e-05,
				4.416341835167259e-05
			],
			"translation":[
				0.00010258890688419342,
				0.0027816230431199074,
				-0.000303538516163826
			]
		}
	],
	"materials":[
		{
			"doubleSided":true,
			"name":"JerseyBarrier",
			"normalTexture":{
				"index":0,
				"scale":0.5
			},
			"pbrMetallicRoughness":{
				"baseColorTexture":{
					"index":1
				},
				"metallicRoughnessTexture":{
					"index":2
				}
			}
		}
	],
	"meshes":[
		{
			"name":"jersey_shape1_JerseyBarrier_0",
			"primitives":[
				{
					"attributes":{
						"POSITION":0,
						"NORMAL":1,
						"TEXCOORD_0":2
					},
					"indices":3,
					"material":0
				}
			]
		}
	],
	"textures":[
		{
			"sampler":0,
			"source":0
		},
		{
			"sampler":0,
			"source":1
		},
		{
			"sampler":0,
			"source":2
		}
	],
	"images":[
		{
			"mimeType":"image/png",
			"name":"JerseyBarrier_normal",
			"uri":"textures/JerseyBarrier_normal.png"
		},
		{
			"mimeType":"image/png",
			"name":"JerseyBarrier_baseColor",
			"uri":"textures/JerseyBarrier_baseColor.png"
		},
		{
			"mimeType":"image/png",
			"name":"JerseyBarrier_metallicRoughness",
			"uri":"textures/JerseyBarrier_metallicRoughness.png"
		}
	],
	"accessors":[
		{
			"bufferView":0,
			"componentType":5126,
			"count":120,
			"max":[
				38.690189361572266,
				64.40937042236328,
				128.87452697753906
			],
			"min":[
				-38.69289016723633,
				-44.11951446533203,
				-128.87452697753906
			],
			"type":"VEC3"
		},
		{
			"bufferView":1,
			"componentType":5126,
			"count":120,
			"type":"VEC3"
		},
		{
			"bufferView":2,
			"componentType":5126,
			"count":120,
			"type":"VEC2"
		},
		{
			"bufferView":3,
			"componentType":5123,
			"count":180,
			"type":"SCALAR"
		}
	],
	"bufferViews":[
		{
			"buffer":0,
			"byteLength":1440,
			"byteOffset":0,
			"target":34962
		},
		{
			"buffer":0,
			"byteLength":1440,
			"byteOffset":1440,
			"target":34962
		},
		{
			"buffer":0,
			"byteLength":960,
			"byteOffset":2880,
			"target":34962
		},
		{
			"buffer":0,
			"byteLength":360,
			"byteOffset":3840,
			"target":34963
		}
	],
	"samplers":[
		{
			"magFilter":9729,
			"minFilter":9987
		}
	],
	"buffers":[
		{
			"byteLength":4200,
			"uri":"scene.bin"
		}
	]
}
