{
  "accessors": [
    {
      "bufferView": 2,
      "componentType": 5126,
      "count": 65532,
      "max": [
        1.6237280368804932,
        1.177348017692566,
        0.5711290240287781
      ],
      "min": [
        -1.6237280368804932,
        -1.177348017692566,
        -0.5711290240287781
      ],
      "type": "VEC3"
    },
    {
      "bufferView": 2,
      "byteOffset": 786384,
      "componentType": 5126,
      "count": 65532,
      "max": [
        0.9999877214431763,
        0.9997326731681824,
        1.0
      ],
      "min": [
        -0.998080849647522,
        -0.9998393058776855,
        -0.9999909400939941
      ],
      "type": "VEC3"
    },
    {
      "bufferView": 1,
      "componentType": 5126,
      "count": 65532,
      "max": [
        0.997767984867096,
        0.9961619973182678
      ],
      "min": [
        0.00047400000039488077,
        0.0020099999383091927
      ],
      "type": "VEC2"
    },
    {
      "bufferView": 0,
      "componentType": 5125,
      "count": 332367,
      "type": "SCALAR"
    },
    {
      "bufferView": 2,
      "byteOffset": 1572768,
      "componentType": 5126,
      "count": 33801,
      "max": [
        1.5030980110168457,
        1.1556390523910522,
        0.5693089962005615
      ],
      "min": [
        -1.4079279899597168,
        -1.1749119758605957,
        -0.5664209723472595
      ],
      "type": "VEC3"
    },
    {
      "bufferView": 2,
      "byteOffset": 1978380,
      "componentType": 5126,
      "count": 33801,
      "max": [
        0.9999585747718811,
        0.9999542236328125,
        1.0
      ],
      "min": [
        -0.9980534911155701,
        -0.817288875579834,
        -0.9797781109809875
      ],
      "type": "VEC3"
    },
    {
      "bufferView": 1,
      "byteOffset": 524256,
      "componentType": 5126,
      "count": 33801,
      "max": [
        0.9981369972229004,
        0.9961619973182678
      ],
      "min": [
        0.00037900000461377203,
        0.053171999752521515
      ],
      "type": "VEC2"
    },
    {
      "bufferView": 0,
      "byteOffset": 1329468,
      "componentType": 5125,
      "count": 161517,
      "type": "SCALAR"
    }
  ],
  "asset": {
    "extras": {
      "author": "Sebo_the_tramp (https://sketchfab.com/sebastian.cavada.dev)",
      "license": "CC-BY-4.0 (http://creativecommons.org/licenses/by/4.0/)",
      "source": "https://sketchfab.com/3d-models/rocks-in-the-snow-one-rock-14273570277c4c7ab3520893616746f6",
      "title": "Rocks in the snow - one rock"
    },
    "generator": "Sketchfab-13.74.0",
    "version": "2.0"
  },
  "bufferViews": [
    {
      "buffer": 0,
      "byteLength": 1975536,
      "name": "floatBufferViews",
      "target": 34963
    },
    {
      "buffer": 0,
      "byteLength": 794664,
      "byteOffset": 1975536,
      "byteStride": 8,
      "name": "floatBufferViews",
      "target": 34962
    },
    {
      "buffer": 0,
      "byteLength": 2383992,
      "byteOffset": 2770200,
      "byteStride": 12,
      "name": "floatBufferViews",
      "target": 34962
    }
  ],
  "buffers": [
    {
      "byteLength": 5154192,
      "uri": "scene.bin"
    }
  ],
  "images": [
    {
      "uri": "textures/textured_0_baseColor.jpeg"
    }
  ],
  "materials": [
    {
      "doubleSided": true,
      "name": "textured_0",
      "pbrMetallicRoughness": {
        "baseColorTexture": {
          "index": 0
        },
        "metallicFactor": 0.0
      }
    }
  ],
  "meshes": [
    {
      "name": "Object_0",
      "primitives": [
        {
          "attributes": {
            "NORMAL": 1,
            "POSITION": 0,
            "TEXCOORD_0": 2
          },
          "indices": 3,
          "material": 0,
          "mode": 4
        }
      ]
    },
    {
      "name": "Object_1",
      "primitives": [
        {
          "attributes": {
            "NORMAL": 5,
            "POSITION": 4,
            "TEXCOORD_0": 6
          },
          "indices": 7,
          "material": 0,
          "mode": 4
        }
      ]
    }
  ],
  "nodes": [
    {
      "children": [
        1
      ],
      "matrix": [
        1.0,
        0.0,
        0.0,
        0.0,
        0.0,
        2.220446049250313e-16,
        -1.0,
        0.0,
        0.0,
        1.0,
        2.220446049250313e-16,
        0.0,
        0.0,
        0.0,
        0.0,
        1.0
      ],
      "name": "Sketchfab_model"
    },
    {
      "children": [
        2,
        3
      ],
      "name": "textured.obj.cleaner.materialmerger.gles"
    },
    {
      "mesh": 0,
      "name": "Object_2"
    },
    {
      "mesh": 1,
      "name": "Object_3"
    }
  ],
  "samplers": [
    {
      "magFilter": 9729,
      "minFilter": 9987,
      "wrapS": 10497,
      "wrapT": 10497
    }
  ],
  "scene": 0,
  "scenes": [
    {
      "name": "Sketchfab_Scene",
      "nodes": [
        0
      ]
    }
  ],
  "textures": [
    {
      "sampler": 0,
      "source": 0
    }
  ]
}
