{
	"asset":{
		"generator":"Khronos glTF Blender I/O v4.3.47",
		"version":"2.0"
	},
	"extensionsUsed":[
		"KHR_materials_specular"
	],
	"scene":0,
	"scenes":[
		{
			"name":"Scene",
			"nodes":[
				32
			]
		}
	],
	"nodes":[
		{
			"name":"Badge_22",
			"rotation":[
				0.70710688829422,
				0,
				0,
				0.7071066498756409
			],
			"scale":[
				0.12872987985610962,
				0.12872985005378723,
				0.12872985005378723
			]
		},
		{
			"name":"Base_21",
			"rotation":[
				0.70710688829422,
				0,
				0,
				0.7071066498756409
			],
			"scale":[
				0.12872987985610962,
				0.12872985005378723,
				0.12872985005378723
			]
		},
		{
			"name":"CaliperLF_27",
			"rotation":[
				0.70710688829422,
				0,
				0,
				0.7071066498756409
			],
			"scale":[
				0.12872987985610962,
				0.12872985005378723,
				0.12872985005378723
			]
		},
		{
			"name":"CaliperLR_29",
			"rotation":[
				0.70710688829422,
				0,
				0,
				0.7071066498756409
			],
			"scale":[
				0.12872987985610962,
				0.12872985005378723,
				0.12872985005378723
			]
		},
		{
			"name":"CaliperRF_28",
			"rotation":[
				0.70710688829422,
				0,
				0,
				0.7071066498756409
			],
			"scale":[
				0.12872987985610962,
				0.12872985005378723,
				0.12872985005378723
			]
		},
		{
			"name":"CaliperRR_30",
			"rotation":[
				0.70710688829422,
				0,
				0,
				0.7071066498756409
			],
			"scale":[
				0.12872987985610962,
				0.12872985005378723,
				0.12872985005378723
			]
		},
		{
			"name":"Carbon1_8",
			"rotation":[
				0.70710688829422,
				0,
				0,
				0.7071066498756409
			],
			"scale":[
				0.12872987985610962,
				0.12872985005378723,
				0.12872985005378723
			]
		},
		{
			"name":"Carbon1M_20",
			"rotation":[
				0.70710688829422,
				0,
				0,
				0.7071066498756409
			],
			"scale":[
				0.12872987985610962,
				0.12872985005378723,
				0.12872985005378723
			]
		},
		{
			"name":"Coloured_19",
			"rotation":[
				0.70710688829422,
				0,
				0,
				0.7071066498756409
			],
			"scale":[
				0.12872987985610962,
				0.12872985005378723,
				0.12872985005378723
			]
		},
		{
			"name":"Engine_18",
			"rotation":[
				0.70710688829422,
				0,
				0,
				0.7071066498756409
			],
			"scale":[
				0.12872987985610962,
				0.12872985005378723,
				0.12872985005378723
			]
		},
		{
			"name":"Glass_3",
			"rotation":[
				0.70710688829422,
				0,
				0,
				0.7071066498756409
			],
			"scale":[
				0.12872987985610962,
				0.12872985005378723,
				0.12872985005378723
			]
		},
		{
			"name":"GlassInside_2",
			"rotation":[
				0.70710688829422,
				0,
				0,
				0.7071066498756409
			],
			"scale":[
				0.12872987985610962,
				0.12872985005378723,
				0.12872985005378723
			]
		},
		{
			"name":"Grille1_17",
			"rotation":[
				0.70710688829422,
				0,
				0,
				0.7071066498756409
			],
			"scale":[
				0.12872987985610962,
				0.12872985005378723,
				0.12872985005378723
			]
		},
		{
			"name":"Grille2_16",
			"rotation":[
				0.70710688829422,
				0,
				0,
				0.7071066498756409
			],
			"scale":[
				0.12872987985610962,
				0.12872985005378723,
				0.12872985005378723
			]
		},
		{
			"name":"Grille3_15",
			"rotation":[
				0.70710688829422,
				0,
				0,
				0.7071066498756409
			],
			"scale":[
				0.12872987985610962,
				0.12872985005378723,
				0.12872985005378723
			]
		},
		{
			"name":"Grille4_14",
			"rotation":[
				0.70710688829422,
				0,
				0,
				0.7071066498756409
			],
			"scale":[
				0.12872987985610962,
				0.12872985005378723,
				0.12872985005378723
			]
		},
		{
			"name":"Grille5_13",
			"rotation":[
				0.70710688829422,
				0,
				0,
				0.7071066498756409
			],
			"scale":[
				0.12872987985610962,
				0.12872985005378723,
				0.12872985005378723
			]
		},
		{
			"name":"Grille6_12",
			"rotation":[
				0.70710688829422,
				0,
				0,
				0.7071066498756409
			],
			"scale":[
				0.12872987985610962,
				0.12872985005378723,
				0.12872985005378723
			]
		},
		{
			"name":"Grille7_11",
			"rotation":[
				0.70710688829422,
				0,
				0,
				0.7071066498756409
			],
			"scale":[
				0.12872987985610962,
				0.12872985005378723,
				0.12872985005378723
			]
		},
		{
			"name":"Interior_10",
			"rotation":[
				0.70710688829422,
				0,
				0,
				0.7071066498756409
			],
			"scale":[
				0.12872987985610962,
				0.12872985005378723,
				0.12872985005378723
			]
		},
		{
			"name":"InteriorTilling_9",
			"rotation":[
				0.70710688829422,
				0,
				0,
				0.7071066498756409
			],
			"scale":[
				0.12872987985610962,
				0.12872985005378723,
				0.12872985005378723
			]
		},
		{
			"name":"Light.001_6",
			"rotation":[
				0.70710688829422,
				0,
				0,
				0.7071066498756409
			],
			"scale":[
				0.12872987985610962,
				0.12872985005378723,
				0.12872985005378723
			]
		},
		{
			"name":"Paint_7",
			"rotation":[
				0.70710688829422,
				0,
				0,
				0.7071066498756409
			],
			"scale":[
				0.12872987985610962,
				0.12872985005378723,
				0.12872985005378723
			]
		},
		{
			"name":"SeatBelt_5",
			"rotation":[
				0.70710688829422,
				0,
				0,
				0.7071066498756409
			],
			"scale":[
				0.12872987985610962,
				0.12872985005378723,
				0.12872985005378723
			]
		},
		{
			"name":"SpecularTint_4",
			"rotation":[
				0.70710688829422,
				0,
				0,
				0.7071066498756409
			],
			"scale":[
				0.12872987985610962,
				0.12872985005378723,
				0.12872985005378723
			]
		},
		{
			"name":"WheelLF_26",
			"rotation":[
				0.70710688829422,
				0,
				0,
				0.7071066498756409
			],
			"scale":[
				0.12872987985610962,
				0.12872985005378723,
				0.12872985005378723
			]
		},
		{
			"name":"WheelLR_25",
			"rotation":[
				0.70710688829422,
				0,
				0,
				0.7071066498756409
			],
			"scale":[
				0.12872987985610962,
				0.12872985005378723,
				0.12872985005378723
			]
		},
		{
			"mesh":0,
			"name":"Object_62"
		},
		{
			"children":[
				27
			],
			"name":"WheelRF_24",
			"rotation":[
				0.70710688829422,
				0,
				0,
				0.7071066498756409
			],
			"scale":[
				0.12872987985610962,
				0.12872985005378723,
				0.12872985005378723
			]
		},
		{
			"name":"WheelRR_23",
			"rotation":[
				0.70710688829422,
				0,
				0,
				0.7071066498756409
			],
			"scale":[
				0.12872987985610962,
				0.12872985005378723,
				0.12872985005378723
			]
		},
		{
			"children":[
				0,
				1,
				2,
				3,
				4,
				5,
				6,
				7,
				8,
				9,
				10,
				11,
				12,
				13,
				14,
				15,
				16,
				17,
				18,
				19,
				20,
				21,
				22,
				23,
				24,
				25,
				26,
				28,
				29
			],
			"name":"GLTF_SceneRootNode",
			"rotation":[
				0.70710688829422,
				0,
				0,
				0.7071066498756409
			]
		},
		{
			"children":[
				30
			],
			"name":"root"
		},
		{
			"children":[
				31
			],
			"name":"Sketchfab_model",
			"rotation":[
				-0.70710688829422,
				0,
				0,
				0.7071066498756409
			]
		}
	],
	"materials":[
		{
			"doubleSided":true,
			"extensions":{
				"KHR_materials_specular":{
					"specularTexture":{
						"index":0
					}
				}
			},
			"name":"Wheel1A.002",
			"normalTexture":{
				"index":1
			},
			"pbrMetallicRoughness":{
				"baseColorTexture":{
					"index":2
				},
				"metallicFactor":0,
				"metallicRoughnessTexture":{
					"index":3
				}
			}
		}
	],
	"meshes":[
		{
			"name":"Object_36.002",
			"primitives":[
				{
					"attributes":{
						"POSITION":0,
						"NORMAL":1,
						"TEXCOORD_0":2
					},
					"indices":3,
					"material":0
				}
			]
		}
	],
	"textures":[
		{
			"sampler":0,
			"source":0
		},
		{
			"sampler":0,
			"source":1
		},
		{
			"sampler":0,
			"source":2
		},
		{
			"sampler":0,
			"source":3
		}
	],
	"images":[
		{
			"mimeType":"image/png",
			"name":"Wheel1A_specularf0",
			"uri":"textures/Wheel1A_specularf0.png"
		},
		{
			"mimeType":"image/png",
			"name":"Wheel1A_normal",
			"uri":"textures/Wheel1A_normal.png"
		},
		{
			"mimeType":"image/png",
			"name":"Wheel1A_baseColor",
			"uri":"textures/Wheel1A_baseColor.png"
		},
		{
			"mimeType":"image/png",
			"name":"Wheel1A_metallicRoughness",
			"uri":"textures/Wheel1A_metallicRoughness.png"
		}
	],
	"accessors":[
		{
			"bufferView":0,
			"componentType":5126,
			"count":11266,
			"max":[
				2.330109119415283,
				3.452193260192871,
				3.480102300643921
			],
			"min":[
				-0.6095905303955078,
				-3.461806297302246,
				-3.4781975746154785
			],
			"type":"VEC3"
		},
		{
			"bufferView":1,
			"componentType":5126,
			"count":11266,
			"type":"VEC3"
		},
		{
			"bufferView":2,
			"componentType":5126,
			"count":11266,
			"type":"VEC2"
		},
		{
			"bufferView":3,
			"componentType":5123,
			"count":33312,
			"type":"SCALAR"
		}
	],
	"bufferViews":[
		{
			"buffer":0,
			"byteLength":135192,
			"byteOffset":0,
			"target":34962
		},
		{
			"buffer":0,
			"byteLength":135192,
			"byteOffset":135192,
			"target":34962
		},
		{
			"buffer":0,
			"byteLength":90128,
			"byteOffset":270384,
			"target":34962
		},
		{
			"buffer":0,
			"byteLength":66624,
			"byteOffset":360512,
			"target":34963
		}
	],
	"samplers":[
		{
			"magFilter":9729,
			"minFilter":9987
		}
	],
	"buffers":[
		{
			"byteLength":427136,
			"uri":"scene.bin"
		}
	]
}
