{
	"asset":{
		"generator":"Khronos glTF Blender I/O v4.3.47",
		"version":"2.0"
	},
	"extensionsUsed":[
		"KHR_materials_unlit"
	],
	"scene":0,
	"scenes":[
		{
			"name":"Scene",
			"nodes":[
				0,
				5
			]
		}
	],
	"nodes":[
		{
			"name":"SnowBall.003_4",
			"rotation":[
				0.11621886491775513,
				0.8768740296363831,
				0.2659120559692383,
				0.38324400782585144
			],
			"translation":[
				0,
				1.1899452209472656,
				0
			]
		},
		{
			"mesh":0,
			"name":"Cube__0",
			"scale":[
				0.1840653270483017,
				0.1840653419494629,
				0.1840653419494629
			],
			"translation":[
				-9.235735893249512,
				-3.9023349285125732,
				26.177112579345703
			]
		},
		{
			"children":[
				1
			],
			"name":"Cube",
			"rotation":[
				-0.70710688829422,
				0,
				0,
				0.7071066498756409
			]
		},
		{
			"children":[
				2
			],
			"name":"RootNode"
		},
		{
			"children":[
				3
			],
			"name":"snowrock01.fbx",
			"rotation":[
				0.70710688829422,
				0,
				0,
				0.7071066498756409
			]
		},
		{
			"children":[
				4
			],
			"name":"Sketchfab_model",
			"rotation":[
				-0.70710688829422,
				0,
				0,
				0.7071066498756409
			],
			"scale":[
				0.03604438155889511,
				0.03604438528418541,
				0.03604438528418541
			]
		}
	],
	"materials":[
		{
			"doubleSided":true,
			"extensions":{
				"KHR_materials_unlit":{}
			},
			"name":"Cube__0",
			"pbrMetallicRoughness":{
				"baseColorFactor":[
					0.5670731663703918,
					0.5670731663703918,
					0.5670731663703918,
					1
				],
				"baseColorTexture":{
					"index":0
				},
				"metallicFactor":0,
				"roughnessFactor":0.9
			}
		}
	],
	"meshes":[
		{
			"name":"Cube__0",
			"primitives":[
				{
					"attributes":{
						"POSITION":0,
						"NORMAL":1,
						"TEXCOORD_0":2,
						"TEXCOORD_1":3,
						"TEXCOORD_2":4,
						"TEXCOORD_3":5,
						"TEXCOORD_4":6,
						"TEXCOORD_5":7,
						"TEXCOORD_6":8,
						"TEXCOORD_7":9
					},
					"indices":10,
					"material":0
				}
			]
		}
	],
	"textures":[
		{
			"sampler":0,
			"source":0
		}
	],
	"images":[
		{
			"mimeType":"image/jpeg",
			"name":"Cube__0_baseColor",
			"uri":"textures/Cube__0_baseColor.jpg"
		}
	],
	"accessors":[
		{
			"bufferView":0,
			"componentType":5126,
			"count":402,
			"max":[
				447.8668212890625,
				484.0882568359375,
				327.4290771484375
			],
			"min":[
				-453.72149658203125,
				-488.4071044921875,
				-231.19293212890625
			],
			"type":"VEC3"
		},
		{
			"bufferView":1,
			"componentType":5126,
			"count":402,
			"type":"VEC3"
		},
		{
			"bufferView":2,
			"componentType":5126,
			"count":402,
			"type":"VEC2"
		},
		{
			"bufferView":3,
			"componentType":5126,
			"count":402,
			"type":"VEC2"
		},
		{
			"bufferView":4,
			"componentType":5126,
			"count":402,
			"type":"VEC2"
		},
		{
			"bufferView":5,
			"componentType":5126,
			"count":402,
			"type":"VEC2"
		},
		{
			"bufferView":6,
			"componentType":5126,
			"count":402,
			"type":"VEC2"
		},
		{
			"bufferView":7,
			"componentType":5126,
			"count":402,
			"type":"VEC2"
		},
		{
			"bufferView":8,
			"componentType":5126,
			"count":402,
			"type":"VEC2"
		},
		{
			"bufferView":9,
			"componentType":5126,
			"count":402,
			"type":"VEC2"
		},
		{
			"bufferView":10,
			"componentType":5123,
			"count":1842,
			"type":"SCALAR"
		}
	],
	"bufferViews":[
		{
			"buffer":0,
			"byteLength":4824,
			"byteOffset":0,
			"target":34962
		},
		{
			"buffer":0,
			"byteLength":4824,
			"byteOffset":4824,
			"target":34962
		},
		{
			"buffer":0,
			"byteLength":3216,
			"byteOffset":9648,
			"target":34962
		},
		{
			"buffer":0,
			"byteLength":3216,
			"byteOffset":12864,
			"target":34962
		},
		{
			"buffer":0,
			"byteLength":3216,
			"byteOffset":16080,
			"target":34962
		},
		{
			"buffer":0,
			"byteLength":3216,
			"byteOffset":19296,
			"target":34962
		},
		{
			"buffer":0,
			"byteLength":3216,
			"byteOffset":22512,
			"target":34962
		},
		{
			"buffer":0,
			"byteLength":3216,
			"byteOffset":25728,
			"target":34962
		},
		{
			"buffer":0,
			"byteLength":3216,
			"byteOffset":28944,
			"target":34962
		},
		{
			"buffer":0,
			"byteLength":3216,
			"byteOffset":32160,
			"target":34962
		},
		{
			"buffer":0,
			"byteLength":3684,
			"byteOffset":35376,
			"target":34963
		}
	],
	"samplers":[
		{
			"magFilter":9729,
			"minFilter":9987
		}
	],
	"buffers":[
		{
			"byteLength":39060,
			"uri":"scene.bin"
		}
	]
}
