{
  "accessors": [
    {
      "bufferView": 2,
      "componentType": 5126,
      "count": 745,
      "max": [
        60.58089828491211,
        111.10929870605469,
        41.60879898071289
      ],
      "min": [
        -49.3911018371582,
        -72.8998031616211,
        -13.430899620056152
      ],
      "type": "VEC3"
    },
    {
      "bufferView": 2,
      "byteOffset": 8940,
      "componentType": 5126,
      "count": 745,
      "max": [
        0.9992728233337402,
        0.9975650310516357,
        0.9994351863861084
      ],
      "min": [
        -0.9976330995559692,
        -0.9925745725631714,
        -0.9999886751174927
      ],
      "type": "VEC3"
    },
    {
      "bufferView": 3,
      "componentType": 5126,
      "count": 745,
      "max": [
        0.9983952045440674,
        0.9124692678451538,
        0.9996024966239929,
        1.0
      ],
      "min": [
        -0.9999252557754517,
        -0.9090889692306519,
        -0.9993694424629211,
        1.0
      ],
      "type": "VEC4"
    },
    {
      "bufferView": 1,
      "componentType": 5126,
      "count": 745,
      "max": [
        0.970300018787384,
        0.9908000230789185
      ],
      "min": [
        0.008700000122189522,
        0.004399999976158142
      ],
      "type": "VEC2"
    },
    {
      "bufferView": 0,
      "componentType": 5125,
      "count": 3222,
      "type": "SCALAR"
    }
  ],
  "asset": {
    "extras": {
      "author": "SaschaHenrichs (https://sketchfab.com/SaschaHenrichs)",
      "license": "CC-BY-4.0 (http://creativecommons.org/licenses/by/4.0/)",
      "source": "https://sketchfab.com/3d-models/obj-nat-rock-01-62d63fd7d1dd416aac1496eb19c43cc0",
      "title": "Obj_Nat_Rock_01"
    },
    "generator": "Sketchfab-12.66.0",
    "version": "2.0"
  },
  "bufferViews": [
    {
      "buffer": 0,
      "byteLength": 12888,
      "name": "floatBufferViews",
      "target": 34963
    },
    {
      "buffer": 0,
      "byteLength": 5960,
      "byteOffset": 12888,
      "byteStride": 8,
      "name": "floatBufferViews",
      "target": 34962
    },
    {
      "buffer": 0,
      "byteLength": 17880,
      "byteOffset": 18848,
      "byteStride": 12,
      "name": "floatBufferViews",
      "target": 34962
    },
    {
      "buffer": 0,
      "byteLength": 11920,
      "byteOffset": 36728,
      "byteStride": 16,
      "name": "floatBufferViews",
      "target": 34962
    }
  ],
  "buffers": [
    {
      "byteLength": 48648,
      "uri": "scene.bin"
    }
  ],
  "images": [
    {
      "uri": "textures/Obj_Stone_01_baseColor.jpeg"
    },
    {
      "uri": "textures/Obj_Stone_01_normal.png"
    }
  ],
  "materials": [
    {
      "doubleSided": true,
      "name": "Obj_Stone_01",
      "normalTexture": {
        "index": 1
      },
      "pbrMetallicRoughness": {
        "baseColorTexture": {
          "index": 0
        },
        "metallicFactor": 0.0,
        "roughnessFactor": 0.6
      }
    }
  ],
  "meshes": [
    {
      "name": "Object_0",
      "primitives": [
        {
          "attributes": {
            "NORMAL": 1,
            "POSITION": 0,
            "TANGENT": 2,
            "TEXCOORD_0": 3
          },
          "indices": 4,
          "material": 0,
          "mode": 4
        }
      ]
    }
  ],
  "nodes": [
    {
      "children": [
        1
      ],
      "matrix": [
        1.0,
        0.0,
        0.0,
        0.0,
        0.0,
        2.220446049250313e-16,
        -1.0,
        0.0,
        0.0,
        1.0,
        2.220446049250313e-16,
        0.0,
        0.0,
        0.0,
        0.0,
        1.0
      ],
      "name": "Sketchfab_model"
    },
    {
      "children": [
        2
      ],
      "name": "c5233a6c6cec48bcb40fcfc665521932.obj.cleaner.materialmerger.gles"
    },
    {
      "mesh": 0,
      "name": "Object_2"
    }
  ],
  "samplers": [
    {
      "magFilter": 9729,
      "minFilter": 9987,
      "wrapS": 10497,
      "wrapT": 10497
    }
  ],
  "scene": 0,
  "scenes": [
    {
      "name": "Sketchfab_Scene",
      "nodes": [
        0
      ]
    }
  ],
  "textures": [
    {
      "sampler": 0,
      "source": 0
    },
    {
      "sampler": 0,
      "source": 1
    }
  ]
}
